<?xml version="1.0" encoding="iso-8859-1"?>
<!-- Generator: Adobe Illustrator 21.1.0, SVG Export Plug-In . SVG Version: 6.00 Build 0)  -->
<svg version="1.1" id="Layer_1" xmlns="http://www.w3.org/2000/svg" xmlns:xlink="http://www.w3.org/1999/xlink" x="0px" y="0px"
	 viewBox="0 0 306 306" style="enable-background:new 0 0 306 306;" xml:space="preserve">
<g>
	<ellipse style="fill:#FFFFFF;" cx="153" cy="153" rx="143.623" ry="144"/>
	<path style="fill:#70C399;" d="M236.914,96.125l35.12-23.724c-18.519-27.441-46.232-48.129-78.703-57.637l-11.691,40.814
		C204.437,62.306,223.893,76.85,236.914,96.125z"/>
	<path style="fill:#535B99;" d="M254.28,153c0,3.043-0.141,6.052-0.403,9.027l42.136,4.214c0.397-4.361,0.61-8.776,0.61-13.241
		c0-29.861-9.066-57.599-24.588-80.598l-35.12,23.724C247.876,112.352,254.28,131.926,254.28,153z"/>
	<path style="fill:#FC7647;" d="M153,51.454c9.948,0,19.558,1.445,28.641,4.125l11.691-40.814C180.535,11.018,167.004,9,153,9
		C106.905,9,65.886,30.776,39.607,64.624L72.88,90.884C91.406,66.899,120.402,51.454,153,51.454z"/>
	<path style="fill:#32365B;" d="M153,254.546c-55.935,0-101.28-45.463-101.28-101.546c0-23.398,7.898-44.945,21.16-62.116
		L39.607,64.624C20.664,89.021,9.377,119.687,9.377,153c0,79.529,64.302,144,143.623,144c39.794,0,75.804-16.229,101.815-42.442
		l-29.98-29.98C206.49,243.085,181.081,254.546,153,254.546z"/>
	<path style="fill:#FC7647;" d="M152.717,163.047h-19.774v-19.763c0-9.557,7.747-17.304,17.304-17.304h2.47
		c9.557,0,17.304,7.747,17.304,17.304v2.459C170.021,155.3,162.274,163.047,152.717,163.047z"/>
	<path style="fill:#31375A;" d="M196.662,145.795c0-24.914-20.231-45.11-45.187-45.11c-24.956,0-45.187,20.197-45.187,45.11
		c0,13.202,5.682,25.078,14.737,33.327c0.024-0.075,0.04-0.126,0.04-0.126V141.66c0,0,3.477-27.208,31.742-26.906
		c0,0,27.359,0.605,28.266,31.894c0,0-1.663,24.336-26.301,27.51h-22.22v12.599v18.756c0,0,6.437-9.849,25.786-15.152
		C180.034,187.058,196.662,168.376,196.662,145.795z"/>
</g>
</svg>
