<?xml version="1.0" encoding="UTF-8" standalone="no"?>
<!DOCTYPE svg PUBLIC "-//W3C//DTD SVG 1.1//EN" "http://www.w3.org/Graphics/SVG/1.1/DTD/svg11.dtd">
<svg width="100%" height="100%" viewBox="0 0 1200 628" version="1.1" xmlns="http://www.w3.org/2000/svg" xmlns:xlink="http://www.w3.org/1999/xlink" xml:space="preserve" xmlns:serif="http://www.serif.com/" style="fill-rule:evenodd;clip-rule:evenodd;stroke-linejoin:round;stroke-miterlimit:2;">
    <g transform="matrix(0.843846,0,0,0.843846,-27.5245,-287)">
        <g id="Name">
            <g transform="matrix(248,0,0,248,420,800)">
                <path d="M0.097,0L0.203,0L0.203,-0.294L0.315,-0.294C0.467,-0.294 0.55,-0.366 0.55,-0.498C0.55,-0.628 0.468,-0.697 0.315,-0.697L0.097,-0.697L0.097,0ZM0.203,-0.393L0.203,-0.598L0.304,-0.598C0.4,-0.598 0.442,-0.567 0.442,-0.496C0.442,-0.426 0.399,-0.393 0.304,-0.393L0.203,-0.393Z" style="fill:rgb(48,54,94);fill-rule:nonzero;"/>
            </g>
            <g transform="matrix(248,0,0,248,564.088,800)">
                <path d="M0.073,-0.589L0.183,-0.589L0.183,-0.697L0.073,-0.697L0.073,-0.589ZM0.077,0L0.18,0L0.18,-0.493L0.077,-0.493L0.077,0Z" style="fill:rgb(48,54,94);fill-rule:nonzero;"/>
            </g>
            <g transform="matrix(248,0,0,248,627.824,800)">
                <path d="M0.011,0L0.137,0L0.252,-0.177L0.367,0L0.493,0L0.32,-0.248L0.493,-0.493L0.367,-0.493L0.252,-0.318L0.137,-0.493L0.011,-0.493L0.183,-0.248L0.011,0Z" style="fill:rgb(48,54,94);fill-rule:nonzero;"/>
            </g>
            <g transform="matrix(248,0,0,248,748.848,800)">
                <path d="M0.488,-0.259C0.488,-0.388 0.418,-0.502 0.265,-0.502C0.108,-0.502 0.036,-0.376 0.036,-0.244C0.036,-0.109 0.11,0.009 0.273,0.009C0.354,0.009 0.416,-0.017 0.472,-0.078L0.4,-0.14C0.363,-0.098 0.322,-0.084 0.274,-0.084C0.19,-0.084 0.143,-0.135 0.139,-0.214L0.485,-0.214C0.487,-0.229 0.488,-0.244 0.488,-0.259ZM0.139,-0.297C0.146,-0.358 0.186,-0.416 0.265,-0.416C0.338,-0.416 0.387,-0.369 0.389,-0.299L0.389,-0.297L0.139,-0.297Z" style="fill:rgb(48,54,94);fill-rule:nonzero;"/>
            </g>
            <g transform="matrix(248,0,0,248,878.552,800)">
                <path d="M0.181,0.009C0.204,0.009 0.23,0.004 0.255,-0.005L0.255,-0.089C0.24,-0.084 0.226,-0.082 0.214,-0.082C0.188,-0.082 0.175,-0.095 0.175,-0.121L0.175,-0.697L0.072,-0.697L0.072,-0.114C0.072,-0.03 0.117,0.009 0.181,0.009Z" style="fill:rgb(48,54,94);fill-rule:nonzero;"/>
            </g>
            <g transform="matrix(248,0,0,248,946.752,800)">
                <path d="M0.23,0.009C0.324,0.009 0.417,-0.041 0.417,-0.151C0.417,-0.333 0.15,-0.279 0.15,-0.368C0.15,-0.398 0.179,-0.419 0.225,-0.419C0.282,-0.419 0.313,-0.388 0.332,-0.353L0.412,-0.397C0.376,-0.465 0.312,-0.502 0.229,-0.502C0.132,-0.502 0.052,-0.452 0.052,-0.36C0.052,-0.18 0.316,-0.244 0.316,-0.145C0.316,-0.11 0.285,-0.078 0.226,-0.078C0.156,-0.078 0.123,-0.122 0.108,-0.163L0.025,-0.126C0.049,-0.049 0.128,0.009 0.23,0.009Z" style="fill:rgb(48,54,94);fill-rule:nonzero;"/>
            </g>
            <g transform="matrix(248,0,0,248,1058.35,800)">
                <path d="M0.388,-0.493L0.388,-0.293C0.388,-0.191 0.372,-0.081 0.265,-0.081C0.173,-0.081 0.168,-0.163 0.168,-0.213L0.168,-0.493L0.065,-0.493L0.065,-0.187C0.065,-0.076 0.116,0.009 0.236,0.009C0.296,0.009 0.353,-0.013 0.388,-0.062L0.388,0L0.491,0L0.491,-0.493L0.388,-0.493Z" style="fill:rgb(48,54,94);fill-rule:nonzero;"/>
            </g>
            <g transform="matrix(248,0,0,248,1199.22,800)">
                <path d="M0.614,-0.502C0.547,-0.502 0.491,-0.476 0.454,-0.405C0.425,-0.478 0.368,-0.502 0.31,-0.502C0.259,-0.502 0.208,-0.484 0.176,-0.431L0.176,-0.493L0.077,-0.493L0.078,0L0.181,0L0.181,-0.204C0.181,-0.308 0.188,-0.412 0.287,-0.412C0.368,-0.412 0.379,-0.334 0.379,-0.28L0.379,0L0.482,0L0.482,-0.204C0.482,-0.307 0.489,-0.412 0.589,-0.412C0.678,-0.412 0.681,-0.322 0.681,-0.282L0.681,0L0.784,0L0.784,-0.312C0.784,-0.416 0.733,-0.502 0.614,-0.502Z" style="fill:rgb(48,54,94);fill-rule:nonzero;"/>
            </g>
        </g>
    </g>
    <g id="Logo" transform="matrix(0.843846,0,0,0.843846,-7.56923,-65.7169)">
        <g transform="matrix(0.998385,0,0,0.995771,60.6381,297.038)">
            <ellipse cx="153" cy="153" rx="143.623" ry="144" style="fill:white;"/>
        </g>
        <g transform="matrix(0.998385,0,0,1,60.6381,297)">
            <path d="M236.914,96.125L272.034,72.401C253.515,44.96 225.802,24.272 193.331,14.764L181.64,55.578C204.437,62.306 223.893,76.85 236.914,96.125Z" style="fill:rgb(78,197,148);fill-rule:nonzero;"/>
        </g>
        <g transform="matrix(0.998385,0,0,1,60.6381,297)">
            <path d="M254.28,153C254.28,156.043 254.139,159.052 253.877,162.027L296.013,166.241C296.41,161.88 296.623,157.465 296.623,153C296.623,123.139 287.557,95.401 272.035,72.402L236.915,96.126C247.876,112.352 254.28,131.926 254.28,153Z" style="fill:rgb(81,92,159);fill-rule:nonzero;"/>
        </g>
        <g transform="matrix(0.998385,0,0,1,60.6381,297)">
            <path d="M153,51.454C162.948,51.454 172.558,52.899 181.641,55.579L193.332,14.765C180.535,11.018 167.004,9 153,9C106.905,9 65.886,30.776 39.607,64.624L72.88,90.884C91.406,66.899 120.402,51.454 153,51.454Z" style="fill:rgb(252,118,71);fill-rule:nonzero;"/>
        </g>
        <g transform="matrix(0.998385,0,0,1,60.6381,295.8)">
            <path d="M153,254.546C97.065,254.546 51.72,209.083 51.72,153C51.72,129.602 59.618,108.055 72.88,90.884L39.607,64.624C20.664,89.021 9.377,119.687 9.377,153C9.377,232.529 73.679,297 153,297C192.794,297 228.804,280.771 254.815,254.558L224.835,224.578C206.49,243.085 181.081,254.546 153,254.546Z" style="fill:rgb(48,54,94);fill-rule:nonzero;"/>
        </g>
        <g transform="matrix(0.998385,0,0,1,60.6381,295.8)">
            <path d="M152.717,163.047L132.943,163.047L132.943,143.284C132.943,133.727 140.69,125.98 150.247,125.98L152.717,125.98C162.274,125.98 170.021,133.727 170.021,143.284L170.021,145.743C170.021,155.3 162.274,163.047 152.717,163.047Z" style="fill:rgb(252,118,71);fill-rule:nonzero;"/>
        </g>
        <g transform="matrix(0.998385,0,0,1,60.6381,295.8)">
            <path d="M196.662,145.795C196.662,120.881 176.431,100.685 151.475,100.685C126.519,100.685 106.288,120.882 106.288,145.795C106.288,158.997 111.97,170.873 121.025,179.122C121.049,179.047 121.065,178.996 121.065,178.996L121.065,141.66C121.065,141.66 124.542,114.452 152.807,114.754C152.807,114.754 180.166,115.359 181.073,146.648C181.073,146.648 179.41,170.984 154.772,174.158L132.552,174.158L132.552,205.513C132.552,205.513 138.989,195.664 158.338,190.361C180.034,187.058 196.662,168.376 196.662,145.795Z" style="fill:rgb(48,54,94);fill-rule:nonzero;"/>
        </g>
    </g>
</svg>
