<svg version="1.1" x="0px" y="0px" width="591" height="187" xmlns="http://www.w3.org/2000/svg" xmlns:xlink="http://www.w3.org/1999/xlink" xmlns:a="http://ns.adobe.com/AdobeSVGViewerExtensions/3.0/" xml:space="preserve"><g transform="translate(178.53125 131.99219225124)  scale(1.6409895825369 1.6409895825369)"><text dominant-baseline="auto" alignment-baseline="auto" font-family="Horizon Rounded Bold" font-size="62px" fill="#000000" letter-spacing="0" xml:space="preserve">Pixelsum</text></g>
<g transform="translate(20 19.999999103174) scale(1.2572978671528 1.2572978671528) rotate(0 50.34100341797 58.427001953125)"><path d="M70.819,49.188c0-11.441-9.309-20.751-20.75-20.751h-0.112c-11.442,0-20.751,9.31-20.751,20.751
	v20.752h20.864C61.511,69.939,70.819,60.63,70.819,49.188z" fill="#000000"></path><path d="M100.682,50.341C100.682,22.538,78.144,0,50.341,0S0,22.538,0,50.341
	c0,14.968,6.539,28.402,16.908,37.623V47.971h0.031c0.644-17.66,15.202-31.831,33.017-31.831h0.112
	c18.222,0,33.047,14.825,33.047,33.048c0,18.224-14.825,33.049-33.047,33.049H29.205v5.615v8.178v20.824
	c9.464-11.463,27.988-16.638,27.988-16.638l-0.021-0.009C81.741,96.872,100.682,75.824,100.682,50.341z" fill="#000000"></path></g>
</svg>